<?xml version="1.0" encoding="UTF-8" standalone="no"?>
<svg
   id="Layer_1"
   viewBox="0 0 64.57 15.62"
   version="1.1"
   sodipodi:docname="adobe-logo-black.svg"
   inkscape:version="1.4.2 (f4327f4, 2025-05-13)"
   xmlns:inkscape="http://www.inkscape.org/namespaces/inkscape"
   xmlns:sodipodi="http://sodipodi.sourceforge.net/DTD/sodipodi-0.dtd"
   xmlns="http://www.w3.org/2000/svg"
   xmlns:svg="http://www.w3.org/2000/svg">
  <sodipodi:namedview
     id="namedview1"
     pagecolor="#ffffff"
     bordercolor="#000000"
     borderopacity="0.25"
     inkscape:showpageshadow="2"
     inkscape:pageopacity="0.0"
     inkscape:pagecheckerboard="0"
     inkscape:deskcolor="#d1d1d1"
     inkscape:zoom="26.457643"
     inkscape:cx="41.897157"
     inkscape:cy="14.003515"
     inkscape:window-width="2560"
     inkscape:window-height="1369"
     inkscape:window-x="-8"
     inkscape:window-y="-8"
     inkscape:window-maximized="1"
     inkscape:current-layer="Layer_1" />
  <defs
     id="defs1">
    <style
       id="style1">.cls-1{fill:#eb1000;}</style>
  </defs>
  <path
     class="cls-1"
     d="M6.27.45h4.39l6.2,14.94h-4.64l-3.92-9.92-2.59,6.51h3.08l1.23,3.41H0L6.27.45ZM22.03,3.55c.45,0,.94.04,1.43.16V.01h3.88v14.72c-.89.4-2.81.89-4.73.89-3.48,0-6.47-1.98-6.47-5.93s2.88-6.13,5.89-6.13h0ZM22.52,12.42c.36,0,.65-.07.94-.16v-5.42c-.29-.11-.58-.16-.96-.16-1.27,0-2.45.94-2.45,2.92s1.2,2.81,2.47,2.81h0ZM34.25,3.55c3.23,0,5.98,2.18,5.98,6.02s-2.74,6.02-5.98,6.02-6-2.18-6-6.02,2.72-6.02,6-6.02ZM34.25,12.36c1.11,0,2.14-.89,2.14-2.79s-1.03-2.79-2.14-2.79-2.12.89-2.12,2.79.96,2.79,2.12,2.79ZM41.16.01h3.9v3.7c.47-.09.96-.16,1.45-.16,3.03,0,5.84,1.98,5.84,5.86,0,4.1-2.99,6.18-6.53,6.18-1.52,0-3.46-.31-4.66-.87V0h0ZM45.91,12.4c1.34,0,2.56-.96,2.56-2.94,0-1.85-1.2-2.72-2.5-2.72-.36,0-.65.04-.91.16v5.35c.22.09.51.16.85.16h0ZM58.97,3.55c2.92,0,5.6,1.87,5.6,5.64,0,.51-.02,1-.09,1.49h-7.27c.4,1.32,1.56,1.94,3.01,1.94,1.18,0,2.27-.29,3.5-.82v2.97c-1.14.58-2.5.82-3.9.82-3.7,0-6.58-2.23-6.58-6.02s2.61-6.02,5.73-6.02ZM60.93,8.25c-.2-1.27-1.05-1.78-1.92-1.78s-1.58.54-1.87,1.78c0,0,3.79,0,3.79,0Z"
     id="path1"
     style="fill:#000000" />
</svg>
