<?xml version="1.0" encoding="UTF-8" standalone="no"?>
<svg
   width="268.14"
   height="54.04"
   viewBox="0 0 268.14 54.04"
   version="1.1"
   id="svg5"
   sodipodi:docname="meta-platforms-logo-black.svg"
   inkscape:version="1.4.2 (f4327f4, 2025-05-13)"
   xmlns:inkscape="http://www.inkscape.org/namespaces/inkscape"
   xmlns:sodipodi="http://sodipodi.sourceforge.net/DTD/sodipodi-0.dtd"
   xmlns="http://www.w3.org/2000/svg"
   xmlns:svg="http://www.w3.org/2000/svg"
   xmlns:rdf="http://www.w3.org/1999/02/22-rdf-syntax-ns#"
   xmlns:cc="http://creativecommons.org/ns#"
   xmlns:dc="http://purl.org/dc/elements/1.1/">
  <defs
     id="defs5" />
  <sodipodi:namedview
     id="namedview5"
     pagecolor="#ffffff"
     bordercolor="#000000"
     borderopacity="0.25"
     inkscape:showpageshadow="2"
     inkscape:pageopacity="0.0"
     inkscape:pagecheckerboard="0"
     inkscape:deskcolor="#d1d1d1"
     inkscape:zoom="4"
     inkscape:cx="129.875"
     inkscape:cy="21.125"
     inkscape:window-width="2560"
     inkscape:window-height="1369"
     inkscape:window-x="-8"
     inkscape:window-y="-8"
     inkscape:window-maximized="1"
     inkscape:current-layer="svg5" />
  <title
     id="title1">Meta Platforms logo - Brandlogos.net</title>
  <path
     d="M348.35,358.72h10.16L375.79,390l17.28-31.26H403v51.36h-8.29V370.72L379.57,398H371.8l-15.15-27.26v39.37h-8.29V358.72Z"
     transform="translate(-249.93 -356.98)"
     style="fill:#000000"
     id="path1" />
  <path
     d="M429.76,411a19.74,19.74,0,0,1-10.13-2.55,17.84,17.84,0,0,1-6.81-7.06A21.41,21.41,0,0,1,410.39,391a22.18,22.18,0,0,1,2.38-10.46,17.81,17.81,0,0,1,6.62-7.12,18.43,18.43,0,0,1,9.74-2.57,16.12,16.12,0,0,1,15.48,9.83,26.12,26.12,0,0,1,2.13,10.93v2.28H418.61a12.17,12.17,0,0,0,3.8,7.39,11.07,11.07,0,0,0,7.65,2.7,16.77,16.77,0,0,0,6.38-1.1,16.24,16.24,0,0,0,5-3.34l4.4,5.39A23,23,0,0,1,429.76,411Zm6.06-30.47a9.12,9.12,0,0,0-6.82-2.66,9.44,9.44,0,0,0-6.88,2.72,12.69,12.69,0,0,0-3.5,7.3h20.18A11.4,11.4,0,0,0,435.81,380.53Z"
     transform="translate(-249.93 -356.98)"
     style="fill:#000000"
     id="path2" />
  <path
     d="M456.8,378.6h-7.63v-6.79h7.63V360.59h8v11.23h11.59v6.79H464.8v17.21q0,4.29,1.47,6.13t5,1.83a23.15,23.15,0,0,0,2.68-.13c.73-.08,1.54-.2,2.42-.35V410a22.48,22.48,0,0,1-3.06.66,24.21,24.21,0,0,1-3.58.26q-13,0-12.95-14.16V378.6Z"
     transform="translate(-249.93 -356.98)"
     style="fill:#000000"
     id="path3" />
  <path
     d="M518.07,410.08h-7.85v-5.35a14.16,14.16,0,0,1-5.32,4.64,16.05,16.05,0,0,1-7.34,1.63,15.86,15.86,0,0,1-9-2.59,17.76,17.76,0,0,1-6.15-7.12,23.1,23.1,0,0,1-2.24-10.37,22.76,22.76,0,0,1,2.28-10.38,17.61,17.61,0,0,1,6.29-7.08A16.77,16.77,0,0,1,498,370.9a15.87,15.87,0,0,1,7,1.52,14,14,0,0,1,5.17,4.31v-4.92h7.85Zm-8-24.88a10.9,10.9,0,0,0-4.05-5.16,11.09,11.09,0,0,0-6.4-1.89,10.36,10.36,0,0,0-8.18,3.45q-3,3.45-3,9.32t2.93,9.36a9.91,9.91,0,0,0,8,3.45,11.73,11.73,0,0,0,6.6-1.91,10.78,10.78,0,0,0,4.18-5.14V385.21Z"
     transform="translate(-249.93 -356.98)"
     style="fill:#000000"
     id="path4" />
  <path
     d="M308.29,357c-6.67,0-11.88,5-16.6,11.4-6.49-8.25-11.91-11.4-18.4-11.4-13.23,0-23.36,17.22-23.36,35.44,0,11.4,5.52,18.6,14.76,18.6,6.65,0,11.43-3.13,19.94-18l6-10.57q1.28,2.07,2.7,4.46l4,6.71c7.77,13,12.1,17.4,19.94,17.4,9,0,14-7.29,14-18.93C331.24,373,320.88,357,308.29,357Zm-30.15,32c-6.89,10.81-9.28,13.23-13.12,13.23s-6.3-3.47-6.3-9.65c0-13.23,6.6-26.76,14.46-26.76,4.26,0,7.82,2.46,13.27,10.26C281.27,384,278.14,389,278.14,389Zm26-1.36-4.77-8q-1.93-3.15-3.72-5.79c4.3-6.63,7.84-9.94,12.06-9.94,8.76,0,15.76,12.89,15.76,28.73,0,6-2,9.54-6.08,9.54C313.49,402.22,311.61,399.63,304.16,387.63Z"
     transform="translate(-249.93 -356.98)"
     style="fill:#000000"
     id="path5" />
  <metadata
     id="metadata5">
    <rdf:RDF>
      <cc:Work
         rdf:about="">
        <dc:title>Meta Platforms logo - Brandlogos.net</dc:title>
      </cc:Work>
    </rdf:RDF>
  </metadata>
</svg>
