<?xml version="1.0" encoding="UTF-8" standalone="no"?>
<svg
   viewBox="0 0 288.07 82.01"
   version="1.1"
   id="svg6"
   sodipodi:docname="micron-black.svg"
   inkscape:version="1.4.2 (f4327f4, 2025-05-13)"
   xmlns:inkscape="http://www.inkscape.org/namespaces/inkscape"
   xmlns:sodipodi="http://sodipodi.sourceforge.net/DTD/sodipodi-0.dtd"
   xmlns="http://www.w3.org/2000/svg"
   xmlns:svg="http://www.w3.org/2000/svg"
   xmlns:rdf="http://www.w3.org/1999/02/22-rdf-syntax-ns#"
   xmlns:cc="http://creativecommons.org/ns#"
   xmlns:dc="http://purl.org/dc/elements/1.1/">
  <defs
     id="defs6" />
  <sodipodi:namedview
     id="namedview6"
     pagecolor="#ffffff"
     bordercolor="#000000"
     borderopacity="0.25"
     inkscape:showpageshadow="2"
     inkscape:pageopacity="0.0"
     inkscape:pagecheckerboard="0"
     inkscape:deskcolor="#d1d1d1"
     inkscape:zoom="8.3868502"
     inkscape:cx="144.09462"
     inkscape:cy="40.956973"
     inkscape:window-width="2560"
     inkscape:window-height="1369"
     inkscape:window-x="-8"
     inkscape:window-y="-8"
     inkscape:window-maximized="1"
     inkscape:current-layer="svg6" />
  <title
     id="title1">Micron Technology logo</title>
  <path
     d="M509.87,535.8c-13.54,0-25.69-7.69-25.69-18.44S496.33,498.9,510,498.9a34.73,34.73,0,0,1,17.49,4.85l-4.24,5.45a30.51,30.51,0,0,0-13.24-3c-5.73,0-12.35,3.21-12.35,11.13s6.52,11.13,12.35,11.13a33.94,33.94,0,0,0,13.43-2.69l4.25,5.75A37.82,37.82,0,0,1,509.87,535.8Z"
     transform="translate(-367.97 -471)"
     style="fill:#000000"
     id="path1" />
  <path
     d="M587.21,535.66c13.63,0,25.79-7.69,25.79-18.44s-12.15-18.46-25.79-18.46-25.79,7.7-25.79,18.46,12.15,18.44,25.79,18.44Zm12.35-18.44c0,7.92-6.62,11.12-12.35,11.12s-12.35-3.21-12.35-11.12,6.62-11.13,12.35-11.13S599.57,509.3,599.57,517.22Z"
     transform="translate(-367.97 -471)"
     style="fill:#000000"
     id="path2" />
  <path
     d="M618.49,534.77h12.74v-22a6.48,6.48,0,0,1,6.43-6.48c2.88,0,5.64,2,5.64,4.49l0,24H656V510.14c0-6.49-7-11.9-15.25-11.9h-.48a17.58,17.58,0,0,0-9.34,2.68c0-.09-.74-2.45-12.47-2.45Z"
     transform="translate(-367.97 -471)"
     style="fill:#000000"
     id="path3" />
  <rect
     x="97.62"
     y="28.67"
     width="12.48"
     height="35.11"
     style="fill:#000000"
     id="rect3" />
  <path
     d="M533.6,534.77h12.48V513.48c0-3.36,4-6.06,8.2-6.06a14.07,14.07,0,0,1,5.67,1.14h0v-9.23a30.89,30.89,0,0,0-4.47-.34,18.85,18.85,0,0,0-9.44,2.6c-.2-.41-1.73-2.37-12.44-2.37v35.56Z"
     transform="translate(-367.97 -471)"
     style="fill:#000000"
     id="path4" />
  <path
     d="M469.92,474.72c-4.74-6.78-19.45-4-38.52,6a17.85,17.85,0,0,0-2.17,1.24c-.92.64-.38,1.11.3.86a23.89,23.89,0,0,0,2.39-1c14.3-6.78,25.44-8,29.8-3.27,6.64,7.21-7,30.82-30.51,48.3-3.14,2.33-8,5.75-11.16,7.64l-.63.4c-.83.55-1.58,1.05-2.16,1.51s-.46,1.15.57.71A18.38,18.38,0,0,0,420,536l.55-.33c3.55-2.16,8.82-5.8,12.43-8.31q4.65-3.25,8.78-6.57v14h12.78V509.22c14.07-14.51,19.9-28,15.36-34.5Z"
     transform="translate(-367.97 -471)"
     style="fill:#000000"
     id="path5" />
  <path
     d="M391.84,553h12.78V539.76c3.49-2.06,7-4.32,10.5-6.7a18.39,18.39,0,0,0,2-1.53c.83-.76.23-1.14-.41-.81s-1.43.81-2.27,1.35c-19.74,12.62-33.06,16.47-38,9.79-4.27-5.8,2.73-17,15.41-29.67v29.39a80.15,80.15,0,0,0,12.77-5.91V508.41l2.81,6c3.08,6.61,8.67,10.55,15.78,10.55S435.9,521,439,514.39l2.81-6v7a90.67,90.67,0,0,0,11.44-13.14,1.38,1.38,0,0,0,.13-1.46,12.26,12.26,0,0,0-22-.11L426,512a3.08,3.08,0,0,1-5.53,0l-5.35-11.34a12.34,12.34,0,0,0-4.54-5A112.36,112.36,0,0,1,422,487.52a23.31,23.31,0,0,0,2.14-1.49c.58-.44.47-1.14-.56-.71a17.75,17.75,0,0,0-2.25,1.15c-3.82,2.32-7.73,4.69-11.47,7.24l-1.35.93a12.24,12.24,0,0,0-16.67,11.41v1.69c-18,16.09-27.52,32-22.57,39.12,3.63,5.2,12.25,4,22.57-.48V553Z"
     transform="translate(-367.97 -471)"
     style="fill:#000000"
     id="path6" />
  <metadata
     id="metadata6">
    <rdf:RDF>
      <cc:Work
         rdf:about="">
        <dc:title>Micron Technology logo</dc:title>
      </cc:Work>
    </rdf:RDF>
  </metadata>
</svg>
