<?xml version="1.0" encoding="UTF-8" standalone="no"?>
<svg
   viewBox="0 0 238.29 166.79"
   version="1.1"
   id="svg2"
   sodipodi:docname="Salesforce-black_1.svg"
   inkscape:version="1.4.2 (f4327f4, 2025-05-13)"
   xmlns:inkscape="http://www.inkscape.org/namespaces/inkscape"
   xmlns:sodipodi="http://sodipodi.sourceforge.net/DTD/sodipodi-0.dtd"
   xmlns="http://www.w3.org/2000/svg"
   xmlns:svg="http://www.w3.org/2000/svg"
   xmlns:rdf="http://www.w3.org/1999/02/22-rdf-syntax-ns#"
   xmlns:cc="http://creativecommons.org/ns#"
   xmlns:dc="http://purl.org/dc/elements/1.1/">
  <defs
     id="defs2" />
  <sodipodi:namedview
     id="namedview2"
     pagecolor="#ffffff"
     bordercolor="#000000"
     borderopacity="0.25"
     inkscape:showpageshadow="2"
     inkscape:pageopacity="0.0"
     inkscape:pagecheckerboard="0"
     inkscape:deskcolor="#d1d1d1"
     inkscape:zoom="6.9968226"
     inkscape:cx="119.1255"
     inkscape:cy="83.394997"
     inkscape:window-width="2560"
     inkscape:window-height="1369"
     inkscape:window-x="-8"
     inkscape:window-y="-8"
     inkscape:window-maximized="1"
     inkscape:current-layer="svg2" />
  <title
     id="title1">Salesforce logo - Brandlogos.net</title>
  <path
     d="M364,318.79a41.81,41.81,0,0,1,67,8.82,50.8,50.8,0,0,1,20.78-4.42c28.37,0,51.37,23.2,51.37,51.82s-23,51.82-51.37,51.82a51.16,51.16,0,0,1-10.12-1,37.56,37.56,0,0,1-49.21,15.45,42.84,42.84,0,0,1-79.65-1.94,39.55,39.55,0,0,1-8.18.85,40.27,40.27,0,0,1-19.89-75A46.28,46.28,0,0,1,364,318.79"
     transform="translate(-264.85 -300.6)"
     style="fill:#000000"
     id="path1" />
  <path
     d="M299.37,387.1l1-2.68a.39.39,0,0,1,.64-.22c.27.16.46.3.81.51a11.56,11.56,0,0,0,6.29,1.81c2.13,0,3.45-1.13,3.45-2.65v-.08c0-1.65-2-2.28-4.38-3l-.52-.17c-3.22-.92-6.67-2.24-6.67-6.33v-.08c0-3.87,3.12-6.58,7.6-6.58H308a13.89,13.89,0,0,1,7,1.88.46.46,0,0,1,.23.55l-1,2.68c-.17.46-.65.15-.65.15a14.1,14.1,0,0,0-6.21-1.59c-1.9,0-3.12,1-3.12,2.37v.09c0,1.59,2.09,2.27,4.51,3.06l.42.13c3.21,1,6.64,2.42,6.64,6.29v.08c0,4.18-3,6.78-7.93,6.78a14.49,14.49,0,0,1-7.13-1.66,14.85,14.85,0,0,1-1.36-.82c0-.07-.25-.15-.1-.54Zm71.56,0,1-2.68a.41.41,0,0,1,.64-.22c.27.16.46.3.81.51a11.58,11.58,0,0,0,6.3,1.81c2.12,0,3.44-1.13,3.44-2.65v-.08c0-1.65-2-2.28-4.38-3l-.52-.17c-3.23-.92-6.68-2.24-6.68-6.33v-.08c0-3.87,3.13-6.58,7.6-6.58h.49a13.92,13.92,0,0,1,7,1.88.47.47,0,0,1,.23.55c-.09.24-.9,2.43-1,2.68-.18.46-.65.15-.65.15a14.1,14.1,0,0,0-6.21-1.59c-1.9,0-3.12,1-3.12,2.37v.09c0,1.59,2.09,2.27,4.51,3.06l.42.13c3.21,1,6.64,2.42,6.64,6.29v.08c0,4.18-3,6.78-7.92,6.78a14.48,14.48,0,0,1-7.13-1.66,15.25,15.25,0,0,1-1.36-.82C371,387.57,370.78,387.49,370.93,387.1Zm52.93-12.58a16.32,16.32,0,0,1,0,8.76,9.83,9.83,0,0,1-1.85,3.55,8.82,8.82,0,0,1-3.14,2.36,11.55,11.55,0,0,1-8.75,0,8.82,8.82,0,0,1-3.14-2.36,9.89,9.89,0,0,1-1.85-3.54,16.33,16.33,0,0,1,0-8.77A9.91,9.91,0,0,1,407,371a9,9,0,0,1,3.14-2.38,11.33,11.33,0,0,1,8.75,0A9,9,0,0,1,422,371,9.79,9.79,0,0,1,423.86,374.52Zm-4.08,4.38a9.94,9.94,0,0,0-1.31-5.52,4.4,4.4,0,0,0-4-1.92,4.36,4.36,0,0,0-4,1.92,12.52,12.52,0,0,0,0,11.07,4.32,4.32,0,0,0,4,1.94,4.39,4.39,0,0,0,4-1.94A10.09,10.09,0,0,0,419.78,378.9Zm37.59,6.85,1,2.77a.38.38,0,0,1-.16.49,16.84,16.84,0,0,1-5.78,1c-3.54,0-6.25-1-8.06-3a11.76,11.76,0,0,1-2.72-8.12,14,14,0,0,1,.67-4.39,10,10,0,0,1,2-3.54,9.42,9.42,0,0,1,3.29-2.38,11.13,11.13,0,0,1,4.55-.87,21.16,21.16,0,0,1,3.06.2,16.37,16.37,0,0,1,2.72.69.37.37,0,0,1,.26.48c-.39,1.09-.65,1.8-1,2.79-.16.42-.47.28-.47.28a13.62,13.62,0,0,0-4.31-.62,5.32,5.32,0,0,0-4.53,2,8.67,8.67,0,0,0-1.57,5.38c0,2.54.63,4.41,1.75,5.58a6.22,6.22,0,0,0,4.67,1.75,14.56,14.56,0,0,0,2.24-.16,9.19,9.19,0,0,0,1.9-.55A.39.39,0,0,1,457.37,385.75Zm20.88-12a14.68,14.68,0,0,1,.41,5.95.4.4,0,0,1-.4.36H464.44a5.65,5.65,0,0,0,6.33,6.22,13.32,13.32,0,0,0,5.67-1,.4.4,0,0,1,.52.24l.9,2.53c.18.42,0,.57-.12.66-.87.48-3,1.37-7,1.38a13.75,13.75,0,0,1-5-.81,8.87,8.87,0,0,1-5.48-5.81,14.89,14.89,0,0,1-.62-4.41,15.47,15.47,0,0,1,.6-4.41,10.07,10.07,0,0,1,1.87-3.59,9.07,9.07,0,0,1,3.18-2.42,10.78,10.78,0,0,1,4.56-.89,10,10,0,0,1,4,.8,8,8,0,0,1,2.63,2,8.62,8.62,0,0,1,1.77,3.23Zm-13.73,2.88h9.85a6.89,6.89,0,0,0-.92-3.26,4.29,4.29,0,0,0-3.87-2,4.41,4.41,0,0,0-4,2,8.1,8.1,0,0,0-1.11,3.26Zm-96.88-2.88a14.79,14.79,0,0,1,.41,5.95.41.41,0,0,1-.4.36H353.83a5.65,5.65,0,0,0,6.33,6.22,13.33,13.33,0,0,0,5.67-1,.4.4,0,0,1,.52.24l.9,2.53c.18.42,0,.57-.11.66-.87.48-3,1.37-7,1.38a13.73,13.73,0,0,1-5-.81,8.84,8.84,0,0,1-5.48-5.81,14.8,14.8,0,0,1-.63-4.41,15.57,15.57,0,0,1,.6-4.41,10.11,10.11,0,0,1,1.87-3.59,9.09,9.09,0,0,1,3.18-2.42,10.81,10.81,0,0,1,4.56-.89,10,10,0,0,1,4,.8,8,8,0,0,1,2.62,2A8.58,8.58,0,0,1,367.62,373.75Zm-13.74,2.88h9.86a7,7,0,0,0-.92-3.26,4.28,4.28,0,0,0-3.87-2,4.4,4.4,0,0,0-4,2,8.1,8.1,0,0,0-1.12,3.26ZM329.53,376s1.09.1,2.28.27v-.58c0-1.84-.38-2.71-1.14-3.29a5.59,5.59,0,0,0-3.41-.89,14.06,14.06,0,0,0-6,1.4,1.89,1.89,0,0,1-.22.11.35.35,0,0,1-.45-.22l-1-2.63a.43.43,0,0,1,.12-.55A13.38,13.38,0,0,1,324,368a22.7,22.7,0,0,1,3.7-.34c2.76,0,4.89.64,6.34,1.91s2.19,3.33,2.19,6.1v12.63a.43.43,0,0,1-.32.45s-.51.14-1,.25-2.12.45-3.48.67a25.39,25.39,0,0,1-4.2.35,16.54,16.54,0,0,1-3.66-.37,7.61,7.61,0,0,1-2.81-1.22,5.71,5.71,0,0,1-1.8-2.16,7.15,7.15,0,0,1-.64-3.15,6.45,6.45,0,0,1,2.75-5.46,8.93,8.93,0,0,1,2.88-1.34,13.23,13.23,0,0,1,3.4-.44c.87,0,1.59,0,2.16.06Zm-5.5,9.71s1.24,1,4,.81a28.2,28.2,0,0,0,3.73-.5v-6.28a28.73,28.73,0,0,0-3.75-.32c-2.81,0-4,1-4,1a3,3,0,0,0-1.23,2.67,3.27,3.27,0,0,0,.42,1.8A2.66,2.66,0,0,0,324,385.68Zm116.9-16.82c-.13.38-.8,2.27-1,2.9-.09.24-.23.4-.5.38a7.89,7.89,0,0,0-1.52-.18,6.61,6.61,0,0,0-1.85.26,4.13,4.13,0,0,0-1.7,1,5.09,5.09,0,0,0-1.21,2,12.14,12.14,0,0,0-.46,3.62v10.29a.42.42,0,0,1-.41.42H428.6a.42.42,0,0,1-.43-.42h0v-20.6a.4.4,0,0,1,.4-.42h3.54a.4.4,0,0,1,.4.42v1.68a6.25,6.25,0,0,1,2.34-1.72,6.83,6.83,0,0,1,3.56-.57,12,12,0,0,1,2.32.39.38.38,0,0,1,.21.49Zm-34.06-9.55a.37.37,0,0,1,.26.48l-1.06,2.9c-.09.22-.15.35-.6.21a6.22,6.22,0,0,0-1.84-.29,4.68,4.68,0,0,0-1.48.22,2.83,2.83,0,0,0-1.16.71,4,4,0,0,0-1,1.48,19.05,19.05,0,0,0-.73,3.11h4.41c.37,0,.49.17.45.45l-.52,2.87a.46.46,0,0,1-.46.4h-4.55l-3.11,17.61a27.17,27.17,0,0,1-1.21,4.64,9.14,9.14,0,0,1-1.8,3.09A6.33,6.33,0,0,1,390,399a9.94,9.94,0,0,1-3.39.53,8.31,8.31,0,0,1-2-.2,10.94,10.94,0,0,1-1.26-.37.41.41,0,0,1-.21-.55c.09-.27.91-2.51,1-2.81a.38.38,0,0,1,.5-.22,3.28,3.28,0,0,0,.74.24,6.38,6.38,0,0,0,1.11.12,5.08,5.08,0,0,0,1.63-.23,2.51,2.51,0,0,0,1.26-1,7.11,7.11,0,0,0,1-2,21.78,21.78,0,0,0,.82-3.4l3.1-17.29h-3c-.36,0-.49-.17-.45-.45l.51-2.87a.47.47,0,0,1,.47-.4h3.13l.17-.93a11.4,11.4,0,0,1,2.78-6.27,7.9,7.9,0,0,1,5.85-2.1,10.75,10.75,0,0,1,1.88.14A12.11,12.11,0,0,1,406.87,359.31Zm-61.7,29.87a.4.4,0,0,1-.4.42h-3.66a.4.4,0,0,1-.39-.42V359.7a.4.4,0,0,1,.39-.41h3.66a.4.4,0,0,1,.4.42Z"
     transform="translate(-264.85 -300.6)"
     style="fill:#fff"
     id="path2" />
  <metadata
     id="metadata2">
    <rdf:RDF>
      <cc:Work
         rdf:about="">
        <dc:title>Salesforce logo - Brandlogos.net</dc:title>
      </cc:Work>
    </rdf:RDF>
  </metadata>
</svg>
