<svg id="Layer_1" data-name="Layer 1" xmlns="http://www.w3.org/2000/svg" viewBox="0 0 678 113.43"><title>WHOOP logo - Brandlogos.net</title><path d="M408.66,327.29c-31.85,0-57.76,25.44-57.76,56.71s25.9,56.71,57.76,56.71,57.77-25.45,57.77-56.71S440.52,327.29,408.66,327.29Zm0,100c-24.33,0-44.14-19.43-44.14-43.32s19.8-43.33,44.14-43.33S452.8,360.1,452.8,384,433,427.32,408.66,427.32Zm-85.74-100h-14.1V440.7h14.1Zm-97,0h14.11V440.7H226Zm28.23,49.77h40.52v13.85H254.2ZM636.5,327.31h14.11V440.71H636.5V327.3Zm28.21,0h18.88c21.73,0,39.41,17.34,39.41,38.67s-17.68,38.67-39.41,38.67H664.72V391.19h18.88a25.22,25.22,0,1,0,0-50.43H664.72ZM491.21,384c0-31.28,25.9-56.71,57.76-56.71s57.77,25.44,57.77,56.71S580.83,440.7,549,440.7,491.21,415.26,491.21,384Zm13.62,0c0,23.89,19.79,43.32,44.14,43.32S593.1,407.89,593.1,384,573.3,340.67,549,340.67,504.83,360.1,504.83,384ZM150.47,440.71h13.71l35.15-113.42H185.62l-28.3,91.31-15-48.45H128.61l21.87,70.56ZM45,327.29l21.87,70.55H80.56L58.71,327.29ZM80.15,440.71l35.16-113.42H129L93.86,440.71Z" transform="translate(-45 -327.29)"/></svg>